<?xml version="1.0" encoding="utf-8"?>
<!-- Generator: Adobe Illustrator 15.0.0, SVG Export Plug-In  -->
<!DOCTYPE svg PUBLIC "-//W3C//DTD SVG 1.1//EN" "http://www.w3.org/Graphics/SVG/1.1/DTD/svg11.dtd" [
	<!ENTITY ns_flows "http://ns.adobe.com/Flows/1.0/">
]>
<svg version="1.1"
	 xmlns="http://www.w3.org/2000/svg" xmlns:xlink="http://www.w3.org/1999/xlink" xmlns:a="http://ns.adobe.com/AdobeSVGViewerExtensions/3.0/"
	 x="0px" y="0px" width="64px" height="64px" viewBox="0 0 64 64" enable-background="new 0 0 64 64" xml:space="preserve">
<defs>
</defs>
<polygon fill="#E3B06B" points="28.543,37.847 38.416,31.338 28.543,24.83 "/>
<path fill="#E3B06B" d="M32,0C14.327,0,0,14.326,0,32c0,17.673,14.327,32,32,32s32-14.327,32-32C64,14.326,49.673,0,32,0z
	 M49.285,38.93c0,2.854-2.313,5.169-5.167,5.169H19.882c-2.854,0-5.167-2.314-5.167-5.169v-13.86c0-2.854,2.313-5.168,5.167-5.168
	h24.236c2.854,0,5.167,2.313,5.167,5.168V38.93z"/>
</svg>
