<?xml version="1.0" encoding="utf-8"?>
<!-- Generator: Adobe Illustrator 15.0.0, SVG Export Plug-In  -->
<!DOCTYPE svg PUBLIC "-//W3C//DTD SVG 1.1//EN" "http://www.w3.org/Graphics/SVG/1.1/DTD/svg11.dtd" [
	<!ENTITY ns_flows "http://ns.adobe.com/Flows/1.0/">
]>
<svg version="1.1"
	 xmlns="http://www.w3.org/2000/svg" xmlns:xlink="http://www.w3.org/1999/xlink" xmlns:a="http://ns.adobe.com/AdobeSVGViewerExtensions/3.0/"
	 x="0px" y="0px" width="64px" height="64px" viewBox="-1.103 -1 64 64" enable-background="new -1.103 -1 64 64"
	 xml:space="preserve">
<defs>
</defs>
<path fill="#E3B06B" d="M40.518,15.857H23.381c-4.155,0-7.523,3.368-7.523,7.524v17.137c0,4.154,3.368,7.523,7.523,7.523h17.137
	c4.155,0,7.523-3.369,7.523-7.523V23.381C48.041,19.225,44.673,15.857,40.518,15.857z M31.949,42.065
	c-5.587,0-10.116-4.528-10.116-10.116s4.529-10.117,10.116-10.117s10.116,4.529,10.116,10.117S37.536,42.065,31.949,42.065z
	 M42.408,23.766c-1.252,0-2.269-1.017-2.269-2.27s1.017-2.27,2.269-2.27c1.254,0,2.271,1.017,2.271,2.27
	S43.662,23.766,42.408,23.766z"/>
<path fill="#E3B06B" d="M31.949,0C14.305,0,0,14.304,0,31.949c0,17.645,14.305,31.948,31.949,31.948s31.948-14.304,31.948-31.948
	C63.897,14.304,49.594,0,31.949,0z M51.143,40.561c0,5.845-4.737,10.582-10.581,10.582H23.337c-5.844,0-10.582-4.737-10.582-10.582
	V23.337c0-5.844,4.738-10.582,10.582-10.582h17.225c5.844,0,10.581,4.738,10.581,10.582V40.561z"/>
<circle fill="#E3B06B" cx="31.949" cy="31.949" r="6.598"/>
</svg>
